<svg width="667" height="700" viewBox="0 0 667 700" fill="none" xmlns="http://www.w3.org/2000/svg">
<path d="M387.523 568.236L387.961 568.03L503.686 649.062L413.276 691.222C400.961 698.638 386.366 701.48 372.203 699.27C360.828 697.592 350.053 692.735 341.241 685.187L0.00124458 446.247H213.307L387.523 568.236Z" fill="#DC143C"/>
<path d="M503.772 514.029C565.011 485.473 637.805 511.967 666.362 573.207L525.027 639.112L409.301 558.08L503.772 514.029Z" fill="#DC143C"/>
<path d="M318.211 152.933H317.95L215.808 255.076H0.471694L0 254.604L225.218 29.3844C239.215 11.4968 261.002 0 285.476 0H471.145L318.211 152.933Z" fill="#DC143C"/>
<path d="M666.535 0C666.535 84.4627 598.064 152.933 513.601 152.933H347.049L499.982 0H666.535Z" fill="#DC143C"/>
</svg>
